REM DIRINDEX 1\2,1\3,1\4,1\5
REM DIRNAME cjc093,folder01,folder02,folder03,folder04
TITLE ""
FILE "Round-03-058-059.mp3" MP3
  TRACK 01 AUDIO
    TITLE "0:"
    INDEX 01 00:00:00
  TRACK 02 AUDIO
    TITLE "2:cjc093_0668"
    INDEX 01 00:00:01
  TRACK 03 AUDIO
    TITLE "0:"
    INDEX 01 00:01:09
  TRACK 04 AUDIO
    TITLE "3:cjc093_0669"
    INDEX 01 00:01:44
  TRACK 05 AUDIO
    TITLE "0:"
    INDEX 01 00:03:10
  TRACK 06 AUDIO
    TITLE "4:cjc093_0670"
    INDEX 01 00:03:33
  TRACK 07 AUDIO
    TITLE "0:"
    INDEX 01 00:06:22
  TRACK 08 AUDIO
    TITLE "2:cjc093_0671"
    INDEX 01 00:07:33
  TRACK 09 AUDIO
    TITLE "0:"
    INDEX 01 00:08:38
  TRACK 10 AUDIO
    TITLE "3:cjc093_0672"
    INDEX 01 00:08:73
  TRACK 11 AUDIO
    TITLE "0:"
    INDEX 01 00:11:09
  TRACK 12 AUDIO
    TITLE "4:cjc093_0673"
    INDEX 01 00:11:37
  TRACK 13 AUDIO
    TITLE "0:"
    INDEX 01 00:14:39
  TRACK 14 AUDIO
    TITLE "4:cjc093_0674"
    INDEX 01 00:15:15
  TRACK 15 AUDIO
    TITLE "0:"
    INDEX 01 00:17:70
  TRACK 16 AUDIO
    TITLE "2:cjc093_0675"
    INDEX 01 00:19:07
  TRACK 17 AUDIO
    TITLE "0:"
    INDEX 01 00:20:22
  TRACK 18 AUDIO
    TITLE "3:cjc093_0676"
    INDEX 01 00:20:57
  TRACK 19 AUDIO
    TITLE "0:"
    INDEX 01 00:22:52
  TRACK 20 AUDIO
    TITLE "4:cjc093_0677"
    INDEX 01 00:23:06
  TRACK 21 AUDIO
    TITLE "0:"
    INDEX 01 00:25:66
  TRACK 22 AUDIO
    TITLE "2:cjc093_0678"
    INDEX 01 00:27:02
  TRACK 23 AUDIO
    TITLE "0:"
    INDEX 01 00:28:00
  TRACK 24 AUDIO
    TITLE "3:cjc093_0679"
    INDEX 01 00:28:37
  TRACK 25 AUDIO
    TITLE "0:"
    INDEX 01 00:29:72
  TRACK 26 AUDIO
    TITLE "4:cjc093_0680"
    INDEX 01 00:30:22
  TRACK 27 AUDIO
    TITLE "0:"
    INDEX 01 00:32:45
  TRACK 28 AUDIO
    TITLE "4:cjc093_0681"
    INDEX 01 00:33:11
  TRACK 29 AUDIO
    TITLE "0:"
    INDEX 01 00:36:05
  TRACK 30 AUDIO
    TITLE "2:cjc093_0682"
    INDEX 01 00:37:16
  TRACK 31 AUDIO
    TITLE "0:"
    INDEX 01 00:38:43
  TRACK 32 AUDIO
    TITLE "3:cjc093_0683"
    INDEX 01 00:39:03
  TRACK 33 AUDIO
    TITLE "0:"
    INDEX 01 00:41:42
  TRACK 34 AUDIO
    TITLE "4:cjc093_0684"
    INDEX 01 00:42:04
  TRACK 35 AUDIO
    TITLE "0:"
    INDEX 01 00:46:49
  TRACK 36 AUDIO
    TITLE "3:cjc093_0685"
    INDEX 01 00:47:58
  TRACK 37 AUDIO
    TITLE "0:"
    INDEX 01 00:49:00
  TRACK 38 AUDIO
    TITLE "4:cjc093_0686"
    INDEX 01 00:49:55
  TRACK 39 AUDIO
    TITLE "0:"
    INDEX 01 00:53:17
  TRACK 40 AUDIO
    TITLE "2:cjc093_0687"
    INDEX 01 00:54:27
  TRACK 41 AUDIO
    TITLE "0:"
    INDEX 01 00:55:30
  TRACK 42 AUDIO
    TITLE "3:cjc093_0688"
    INDEX 01 00:56:08
  TRACK 43 AUDIO
    TITLE "0:"
    INDEX 01 00:57:72
  TRACK 44 AUDIO
    TITLE "4:cjc093_0689"
    INDEX 01 00:58:40
  TRACK 45 AUDIO
    TITLE "0:"
    INDEX 01 01:01:58
  TRACK 46 AUDIO
    TITLE "3:cjc093_0690"
    INDEX 01 01:02:73
  TRACK 47 AUDIO
    TITLE "0:"
    INDEX 01 01:04:01
  TRACK 48 AUDIO
    TITLE "4:cjc093_0691"
    INDEX 01 01:04:37
  TRACK 49 AUDIO
    TITLE "0:"
    INDEX 01 01:07:63
  TRACK 50 AUDIO
    TITLE "2:cjc093_0692"
    INDEX 01 01:08:72
  TRACK 51 AUDIO
    TITLE "0:"
    INDEX 01 01:10:04
  TRACK 52 AUDIO
    TITLE "3:cjc093_0693"
    INDEX 01 01:10:33
  TRACK 53 AUDIO
    TITLE "0:"
    INDEX 01 01:12:07
  TRACK 54 AUDIO
    TITLE "4:cjc093_0694"
    INDEX 01 01:12:32
  TRACK 55 AUDIO
    TITLE "0:"
    INDEX 01 01:15:11
  TRACK 56 AUDIO
    TITLE "2:cjc093_0695"
    INDEX 01 01:16:22
  TRACK 57 AUDIO
    TITLE "0:"
    INDEX 01 01:17:22
  TRACK 58 AUDIO
    TITLE "3:cjc093_0696"
    INDEX 01 01:17:53
  TRACK 59 AUDIO
    TITLE "0:"
    INDEX 01 01:19:58
  TRACK 60 AUDIO
    TITLE "4:cjc093_0697"
    INDEX 01 01:20:38
  TRACK 61 AUDIO
    TITLE "0:"
    INDEX 01 01:22:60
  TRACK 62 AUDIO
    TITLE "2:cjc093_0698"
    INDEX 01 01:23:71
  TRACK 63 AUDIO
    TITLE "0:"
    INDEX 01 01:24:67
  TRACK 64 AUDIO
    TITLE "3:cjc093_0699"
    INDEX 01 01:25:33
  TRACK 65 AUDIO
    TITLE "0:"
    INDEX 01 01:27:01
  TRACK 66 AUDIO
    TITLE "4:cjc093_0700"
    INDEX 01 01:27:30
  TRACK 67 AUDIO
    TITLE "0:"
    INDEX 01 01:30:46
